<?xml version="1.0" encoding="UTF-8"?>
<svg id="Layer_2" data-name="Layer 2" xmlns="http://www.w3.org/2000/svg" viewBox="0 0 350.6 84.39">
  <style type="text/css">
    #appgate-inc-logo-path {
      fill: #000000;
    }

    @media (prefers-color-scheme: dark) {
      #appgate-inc-logo-path {
        fill: #ffffff;
      }
    }
  </style>
  <g id="Layer_1-2" data-name="Layer 1">
    <path id="appgate-inc-logo-path" d="M83.74,13.45c-13.33,0-24.18,10.82-24.18,24.11v42.63l8.99,4.2v-27.98c4.33,3.5,9.67,5.41,15.2,5.41,13.33,0,24.18-10.88,24.18-24.26s-10.85-24.11-24.18-24.11ZM98.94,37.56c0,8.38-6.82,15.2-15.2,15.2s-15.2-6.82-15.2-15.2,6.82-15.12,15.2-15.12,15.2,6.78,15.2,15.12ZM135.49,13.45c-13.33,0-24.18,10.82-24.18,24.11v42.63l8.99,4.2v-27.98c4.33,3.5,9.67,5.41,15.2,5.41,13.33,0,24.18-10.88,24.18-24.26s-10.85-24.11-24.18-24.11ZM150.68,37.56c0,8.38-6.82,15.2-15.2,15.2s-15.2-6.82-15.2-15.2,6.82-15.12,15.2-15.12,15.2,6.78,15.2,15.12ZM251.72,13.45c-13.33,0-24.18,10.85-24.18,24.18s10.85,24.18,24.18,24.18c5.49,0,10.84-1.89,15.2-5.35v3.72l8.98,4.58v-27.13c0-13.33-10.85-24.18-24.18-24.18ZM266.92,37.63c0,8.38-6.82,15.2-15.2,15.2s-15.2-6.82-15.2-15.2,6.82-15.12,15.2-15.12,15.2,6.78,15.2,15.12ZM299.32,52.83h3.09v8.98h-3.09c-9.01,0-16.34-7.33-16.34-16.34v-22.82h-5.85v-8.99h5.85V0l9.06,4.49v9.18h6.14v8.99h-6.14v22.82c0,4.05,3.26,7.35,7.28,7.35ZM326.41,13.45c-13.33,0-24.18,10.85-24.18,24.18s10.85,24.18,24.18,24.18c9.09,0,17.34-5.05,21.53-13.19l.43-.83h-10.73l-.17.18c-2.86,3.08-6.79,4.78-11.06,4.78-6.66,0-12.52-4.34-14.49-10.63h38.21l.08-.47c.25-1.42.38-2.77.38-4.02,0-13.33-10.85-24.18-24.18-24.18ZM326.41,22.43c6.73,0,12.59,4.37,14.5,10.7h-29c1.92-6.34,7.78-10.7,14.5-10.7ZM32.45.71l23.54,61.1h-9.66l-6.14-16.06h-20.81l3.48-8.99h13.85l-8.72-22.57L9.66,61.81H0L23.68.35h8.63l.14.36ZM196.62,31.66h27.77l-.02.59c-.61,16.58-14.09,29.56-30.7,29.56s-30.77-13.77-30.77-30.7S176.71.35,193.68.35c12.63,0,23.82,7.58,28.51,19.31l.31.78h-9.9l-.17-.28c-3.9-6.67-11.08-10.82-18.75-10.82-12.01,0-21.78,9.77-21.78,21.79s9.77,21.71,21.78,21.71c8.33,0,15.88-4.75,19.47-12.19h-20.01l3.48-8.99Z" />
  </g>
</svg>
